<svg width="81" height="81" viewBox="0 0 81 81" fill="none" xmlns="http://www.w3.org/2000/svg">
<g clip-path="url(#clip0_11_2)">
<path d="M5.0625 40.5C5.0625 60.0697 20.9303 75.9375 40.5 75.9375C45.4676 75.9375 50.2137 74.9092 54.501 73.0582C55.1654 74.4504 56.0672 75.7635 57.2379 76.9184C57.3486 77.0291 57.4594 77.1398 57.5701 77.2348C52.3811 79.6553 46.5908 81 40.5 81C18.1301 81 0 62.8699 0 40.5C0 32.4475 2.35723 24.9328 6.40723 18.6205C5.55293 17.26 5.0625 15.6463 5.0625 13.9219C5.0625 9.0334 9.0334 5.0625 13.9219 5.0625C15.6463 5.0625 17.26 5.55293 18.6205 6.40723C19.1584 6.75527 19.6805 7.15078 20.1551 7.62539L20.1867 7.65703L20.2025 7.67285C20.9777 8.44805 21.5631 9.33398 21.9902 10.2674C22.4965 11.3748 22.7812 12.6088 22.7812 13.9219C22.7812 18.8104 18.8104 22.7812 13.9219 22.7812C12.6246 22.7812 11.3906 22.4965 10.2674 21.9902C6.96094 27.385 5.0625 33.7131 5.0625 40.5ZM62.3795 74.5928C61.8258 74.2447 61.3037 73.8334 60.8291 73.3588L62.3795 74.5928ZM67.0781 75.9375C65.3537 75.9375 63.74 75.4471 62.3795 74.5928L59.0098 70.7326C58.5035 69.6252 58.2188 68.3754 58.2188 67.0781C58.2188 62.1896 62.1896 58.2188 67.0781 58.2188C68.3754 58.2188 69.6094 58.5035 70.7326 59.0098C74.0391 53.6309 75.9375 47.2869 75.9375 40.5C75.9375 20.9303 60.0697 5.0625 40.5 5.0625C35.5324 5.0625 30.7863 6.09082 26.499 7.9418C25.8346 6.54961 24.917 5.23652 23.7621 4.08164C23.6514 3.9709 23.5406 3.86016 23.4299 3.76523C28.6189 1.34473 34.4092 0 40.5 0C62.8699 0 81 18.1301 81 40.5C81 48.5525 78.6428 56.0672 74.5928 62.3795C75.4471 63.74 75.9375 65.3537 75.9375 67.0781C75.9375 71.9666 71.9666 75.9375 67.0781 75.9375ZM70.875 67.0781C70.875 66.0711 70.475 65.1054 69.7629 64.3933C69.0509 63.6813 68.0851 63.2812 67.0781 63.2812C66.0711 63.2812 65.1054 63.6813 64.3933 64.3933C63.6813 65.1054 63.2812 66.0711 63.2812 67.0781C63.2812 68.0851 63.6813 69.0509 64.3933 69.7629C65.1054 70.475 66.0711 70.875 67.0781 70.875C68.0851 70.875 69.0509 70.475 69.7629 69.7629C70.475 69.0509 70.875 68.0851 70.875 67.0781ZM13.9219 17.7188C14.4205 17.7188 14.9142 17.6205 15.3749 17.4297C15.8355 17.2389 16.2541 16.9592 16.6067 16.6067C16.9592 16.2541 17.2389 15.8355 17.4297 15.3749C17.6205 14.9142 17.7188 14.4205 17.7188 13.9219C17.7188 13.4233 17.6205 12.9295 17.4297 12.4689C17.2389 12.0082 16.9592 11.5897 16.6067 11.2371C16.2541 10.8845 15.8355 10.6048 15.3749 10.414C14.9142 10.2232 14.4205 10.125 13.9219 10.125C13.4233 10.125 12.9295 10.2232 12.4689 10.414C12.0082 10.6048 11.5897 10.8845 11.2371 11.2371C10.8845 11.5897 10.6048 12.0082 10.414 12.4689C10.2232 12.9295 10.125 13.4233 10.125 13.9219C10.125 14.4205 10.2232 14.9142 10.414 15.3749C10.6048 15.8355 10.8845 16.2541 11.2371 16.6067C11.5897 16.9592 12.0082 17.2389 12.4689 17.4297C12.9295 17.6205 13.4233 17.7188 13.9219 17.7188ZM55.6875 30.375C52.1912 30.375 49.3594 27.5432 49.3594 24.0469C49.3594 23.4773 49.4385 22.9236 49.5809 22.4016C46.8439 21.0252 43.759 20.25 40.5 20.25C29.315 20.25 20.25 29.315 20.25 40.5C20.25 51.685 29.315 60.75 40.5 60.75C51.685 60.75 60.75 51.685 60.75 40.5C60.75 36.6557 59.6742 33.0645 57.8232 30.0111C57.1588 30.2484 56.4311 30.375 55.6875 30.375ZM65.8125 40.5C65.8125 54.4852 54.4852 65.8125 40.5 65.8125C26.5148 65.8125 15.1875 54.4852 15.1875 40.5C15.1875 26.5148 26.5148 15.1875 40.5 15.1875C44.9771 15.1875 49.1854 16.3582 52.8398 18.399C53.6941 17.9719 54.6592 17.7188 55.6875 17.7188C59.1838 17.7188 62.0156 20.5506 62.0156 24.0469C62.0156 24.8854 61.8574 25.6922 61.541 26.4357C64.2305 30.4541 65.8125 35.2951 65.8125 40.5ZM40.5 53.1562L36.9246 49.5809L31.435 44.0912L27.8438 40.5L31.4191 36.9246L36.9088 31.435L40.5 27.8438L44.0754 31.4191L49.565 36.9088L53.1562 40.5L49.5809 44.0754L44.0912 49.565L40.5 53.1562ZM40.5 35.0104L35.0104 40.5L40.5 45.9897L45.9897 40.5L40.5 35.0104Z" fill="#F55959"/>
<path d="M44.8132 44.1127C42.7111 44.1127 40.4472 43.3841 38.6923 42.3042C37.7875 41.7474 39.2204 40.7563 39.6169 40.5361C40.28 40.1677 41.6549 39.9928 42.377 40.3539C45.1316 41.7312 45.4908 46.4226 44.5702 49.0391C44.0486 50.5216 42.1705 50.6214 40.8856 50.2943C39.2824 49.8862 38.657 48.919 38.1322 47.4195C37.55 45.756 37.6199 43.8876 37.6463 42.1422C37.6675 40.7464 38.9009 39.3485 39.8261 38.4103C40.6752 37.5492 41.8682 37.5223 42.9236 37.9852C45.5987 39.1584 46.0117 41.8819 46.0279 44.5446C46.0412 46.7331 45.6545 49.2937 43.0316 49.6262C40.7552 49.9148 38.7688 49.1784 36.9175 47.8716C35.988 47.2155 35.1065 46.5192 34.2721 45.7459C33.4143 44.9508 33.1797 43.9594 32.7875 42.898C31.6072 39.7045 33.0161 35.5885 36.796 35.1508C38.6477 34.9364 40.5033 35.3195 42.2893 35.7582C43.9059 36.1553 45.4904 36.8561 46.2641 38.4036C46.597 39.0694 46.781 39.7197 46.7567 40.4686C46.7256 41.4261 46.5623 42.5386 45.9469 43.3164C45.1076 44.3772 43.5425 44.4259 42.3162 44.3152C41.574 44.2481 40.6257 44.1145 40.1433 43.4649C39.1623 42.1438 38.727 40.1233 38.4561 38.5318C38.2349 37.232 38.3401 35.8493 38.7328 34.5974C39.1465 33.2788 39.5928 32.0689 40.5009 31.0005C41.1682 30.2155 42.0982 30.3117 43.0181 30.5619C46.7106 31.5663 49.5348 35.3612 51.0082 38.687C51.5402 39.8877 51.7234 41.396 51.5616 42.7091C51.3056 44.7873 49.7751 47.2419 47.7352 47.9121C45.9745 48.4906 43.3901 48.6691 41.5874 48.1483C39.2856 47.4833 36.9406 46.1451 35.966 43.9035C35.2121 42.1696 35.828 39.7365 36.6881 38.1741C37.6702 36.39 39.5604 34.5868 41.5672 34.0103C43.3541 33.4971 45.864 33.7738 47.58 34.449C49.4071 35.1678 50.8136 36.2944 51.7101 38.0526C52.7234 40.04 53.1507 42.3271 53.0395 44.5514C52.9343 46.6565 51.6866 47.9853 49.78 48.7219C47.1674 49.7313 44.3696 50.0435 41.6144 49.525C40.1189 49.2435 38.9365 48.631 37.6463 47.8784" stroke="#121212" stroke-width="10" stroke-linecap="round"/>
<g clip-path="url(#clip1_11_2)">
<path d="M47.7086 44.5246L43.8543 44.2668C43.6309 44.2539 43.4117 44.3141 43.2313 44.4473C43.0508 44.5805 42.9219 44.7652 42.8703 44.9844L41.925 48.7313C41.3062 48.8688 40.6617 48.9375 40 48.9375C39.3383 48.9375 38.698 48.8645 38.075 48.7313L37.1297 44.9844C37.0738 44.7695 36.9449 44.5805 36.7688 44.4473C36.5926 44.3141 36.3691 44.2539 36.1457 44.2668L32.2914 44.5246C31.6512 43.4332 31.2301 42.1914 31.1055 40.868L34.3711 38.8098C34.5602 38.6895 34.6977 38.509 34.7664 38.2984C34.8352 38.0879 34.8266 37.8602 34.7449 37.6539L33.3141 34.0703C34.1691 33.1078 35.2305 32.3301 36.425 31.8059L39.3941 34.2809C39.566 34.4227 39.7809 34.5 40 34.5C40.2191 34.5 40.4383 34.4227 40.6059 34.2809L43.575 31.8059C44.7695 32.3301 45.8309 33.1078 46.6859 34.0703L45.2508 37.6539C45.1691 37.8602 45.1605 38.0879 45.2293 38.2984C45.298 38.509 45.4398 38.6895 45.6246 38.8098L48.8945 40.868C48.7656 42.1914 48.3488 43.4332 47.7086 44.5246ZM40 31.0625H40.0387H39.9613H40ZM31.4363 37.4305C31.475 37.3016 31.518 37.1684 31.5609 37.0395L31.4363 37.4305ZM34.6719 47.1758L34.8352 47.2918C34.7793 47.2531 34.7277 47.2145 34.6719 47.1758ZM45.3324 47.1715C45.2766 47.2145 45.2164 47.2574 45.1605 47.2961L45.3324 47.1715ZM48.5637 37.4348L48.4348 37.0395C48.482 37.1684 48.525 37.3016 48.5637 37.4348ZM40 51C42.9174 51 45.7153 49.8411 47.7782 47.7782C49.8411 45.7153 51 42.9174 51 40C51 37.0826 49.8411 34.2847 47.7782 32.2218C45.7153 30.1589 42.9174 29 40 29C37.0826 29 34.2847 30.1589 32.2218 32.2218C30.1589 34.2847 29 37.0826 29 40C29 42.9174 30.1589 45.7153 32.2218 47.7782C34.2847 49.8411 37.0826 51 40 51ZM40.6059 37.0051C40.2449 36.743 39.7551 36.743 39.3941 37.0051L37.3359 38.4961C36.975 38.7582 36.8246 39.2223 36.9621 39.6477L37.7484 42.0668C37.8859 42.4922 38.2812 42.7801 38.7281 42.7801H41.2719C41.7188 42.7801 42.1141 42.4922 42.2516 42.0668L43.0379 39.6477C43.1754 39.2223 43.025 38.7582 42.6641 38.4961L40.6059 37.0008V37.0051Z" fill="#F55959"/>
</g>
</g>
<defs>
<clipPath id="clip0_11_2">
<rect width="81" height="81" fill="white"/>
</clipPath>
<clipPath id="clip1_11_2">
<rect width="22" height="22" fill="white" transform="translate(29 29)"/>
</clipPath>
</defs>
</svg>
