<svg width="384" height="532" viewBox="0 0 384 532" fill="none" xmlns="http://www.w3.org/2000/svg">
<path d="M219.164 83.5C218.858 84.6341 218.34 85.7693 217.597 86.8868C216.298 88.8399 214.335 90.6995 211.745 92.3131C209.157 93.925 206.036 95.2326 202.547 96.133C199.06 97.0327 195.305 97.5 191.5 97.5C187.695 97.5 183.94 97.0327 180.453 96.133C176.964 95.2326 173.843 93.925 171.255 92.3131C168.665 90.6995 166.702 88.8399 165.403 86.8868C164.66 85.7693 164.142 84.6341 163.836 83.5L191.5 83.5H219.164Z" stroke="#F55858" stroke-width="5"/>
<rect x="2.5" y="15.5" width="379" height="251" stroke="#F55858" stroke-width="5"/>
<rect x="109.5" y="15.5" width="167" height="68" stroke="#F55858" stroke-width="5"/>
<rect x="154.5" y="15.5" width="76" height="21" stroke="#F55858" stroke-width="5"/>
<circle cx="192.5" cy="58.5" r="3" fill="#F55858" stroke="#F55858"/>
<circle cx="191.5" cy="266.5" r="39" stroke="#F55858" stroke-width="5"/>
<mask id="path-7-inside-1_121_9" fill="white">
<path d="M161 449C161 446.505 161.789 444.034 163.322 441.729C164.854 439.424 167.101 437.329 169.933 435.565C172.765 433.801 176.128 432.401 179.828 431.446C183.529 430.491 187.495 430 191.5 430C195.505 430 199.471 430.491 203.172 431.446C206.872 432.401 210.235 433.801 213.067 435.565C215.899 437.329 218.146 439.424 219.678 441.729C221.211 444.034 222 446.505 222 449L191.5 449H161Z"/>
</mask>
<path d="M161 449C161 446.505 161.789 444.034 163.322 441.729C164.854 439.424 167.101 437.329 169.933 435.565C172.765 433.801 176.128 432.401 179.828 431.446C183.529 430.491 187.495 430 191.5 430C195.505 430 199.471 430.491 203.172 431.446C206.872 432.401 210.235 433.801 213.067 435.565C215.899 437.329 218.146 439.424 219.678 441.729C221.211 444.034 222 446.505 222 449L191.5 449H161Z" stroke="#F55858" stroke-width="10" mask="url(#path-7-inside-1_121_9)"/>
<rect x="381.5" y="517.5" width="379" height="251" transform="rotate(180 381.5 517.5)" stroke="#F55858" stroke-width="5"/>
<rect x="273.5" y="516.5" width="166" height="68" transform="rotate(180 273.5 516.5)" stroke="#F55858" stroke-width="5"/>
<rect x="228.5" y="516.5" width="75" height="21" transform="rotate(180 228.5 516.5)" stroke="#F55858" stroke-width="5"/>
<circle cx="191.5" cy="470.5" r="3" transform="rotate(180 191.5 470.5)" fill="#F55858" stroke="#F55858"/>
<rect x="178.5" y="2.5" width="28" height="10" stroke="#F55858" stroke-width="5"/>
<rect x="206.5" y="529.5" width="28" height="10" transform="rotate(180 206.5 529.5)" stroke="#F55858" stroke-width="5"/>
<circle cx="192" cy="266" r="4.5" fill="#F55858" stroke="#F55858"/>
</svg>
