<svg width="37" height="32" viewBox="0 0 37 32" fill="none" xmlns="http://www.w3.org/2000/svg">
<path d="M3.43984 18.7086L16.4982 30.8998C17.0402 31.4057 17.7557 31.6875 18.5 31.6875C19.2443 31.6875 19.9598 31.4057 20.5018 30.8998L33.5602 18.7086C35.757 16.6635 37 13.7945 37 10.7955V10.3764C37 5.32499 33.3506 1.01796 28.3715 0.186904C25.0762 -0.362314 21.723 0.714444 19.3672 3.0703L18.5 3.93749L17.6328 3.0703C15.277 0.714444 11.9238 -0.362314 8.62852 0.186904C3.64941 1.01796 0 5.32499 0 10.3764V10.7955C0 13.7945 1.24297 16.6635 3.43984 18.7086Z" fill="#F55959"/>
</svg>
