<svg width="37" height="32" viewBox="0 0 37 32" fill="none" xmlns="http://www.w3.org/2000/svg">
<path d="M16.3176 30.8348L16.1369 30.6686L3.47598 18.9109C1.25742 16.8514 0 13.9608 0 10.9328V10.6943C0 5.60684 3.61328 1.242 8.61406 0.288095C11.4613 -0.261124 14.3736 0.396493 16.6934 2.0297C17.3438 2.4922 17.9508 3.02696 18.5 3.64122C18.8035 3.29434 19.1287 2.97638 19.4756 2.68009C19.743 2.44884 20.0176 2.23204 20.3066 2.0297C22.6264 0.396493 25.5387 -0.261124 28.3859 0.280868C33.3867 1.23477 37 5.60684 37 10.6943V10.9328C37 13.9608 35.7426 16.8514 33.524 18.9109L20.8631 30.6686L20.6824 30.8348C20.0898 31.384 19.3094 31.6947 18.5 31.6947C17.6906 31.6947 16.9102 31.3912 16.3176 30.8348ZM17.2787 7.47852C17.2498 7.45685 17.2281 7.42794 17.2064 7.39903L15.9201 5.95372L15.9129 5.94649C14.2436 4.07481 11.7215 3.22208 9.26445 3.69181C5.89687 4.33497 3.46875 7.26895 3.46875 10.6943V10.9328C3.46875 12.9924 4.32871 14.9652 5.83906 16.3672L18.5 28.1248L31.1609 16.3672C32.6713 14.9652 33.5312 12.9924 33.5312 10.9328V10.6943C33.5312 7.27618 31.1031 4.33497 27.7428 3.69181C25.2857 3.22208 22.7564 4.08204 21.0943 5.94649C21.0943 5.94649 21.0943 5.94649 21.0871 5.95372C21.0799 5.96095 21.0871 5.95372 21.0799 5.96095L19.7936 7.40626C19.7719 7.43517 19.743 7.45685 19.7213 7.48575C19.3961 7.81095 18.9553 7.99161 18.5 7.99161C18.0447 7.99161 17.6039 7.81095 17.2787 7.48575V7.47852Z" fill="#F55959"/>
</svg>
